<?xml version="1.0" ?><svg enable-background="new 0 0 160 204.5916" id="google" version="1.1" viewBox="0 0 160 204.5916" xml:space="preserve" xmlns="http://www.w3.org/2000/svg" xmlns:xlink="http://www.w3.org/1999/xlink"><g><path d="M68.9843,139.174c-1.1408-0.1232-2.4608-0.1836-3.9803-0.1896c-0.9221-0.0744-2.6485-0.0724-7.3165,0.3652   c-3.6172,0.5116-7.3908,1.3516-11.4924,2.588c-0.8828,0.336-2.1208,0.8496-3.836,1.572c-1.8356,0.844-3.7108,2.0372-5.7068,3.6624   c-1.8984,1.6872-3.5116,3.7676-4.7148,6.0528c-1.5784,2.7264-2.3792,5.9824-2.3792,9.6736c0,7.2168,3.25,13.1992,9.5824,17.7228   c5.7344,4.3164,13.5156,6.5644,23.2344,6.6796c8.7656-0.1212,15.6716-2.1796,20.5232-6.1192   c0.008-0.004,0.0116-0.0096,0.0196-0.0136c4.996-4.1016,7.5312-9.4512,7.5312-15.8984c0-5.2364-1.7344-9.8596-5.2968-13.8928   c-3.1368-3.2128-7.8203-6.9764-14.3088-11.5056C70.2927,139.4844,69.6523,139.246,68.9843,139.174z M82.4491,165.2696   c0,3.9884-1.504,7.162-4.5976,9.7052c-3.422,2.7752-8.668,4.2304-15.4844,4.326c-7.8751-0.0936-14.0704-1.8008-18.496-5.1288   c-4.246-3.0372-6.3128-6.7248-6.3128-11.2736c0-2.2676,0.4377-4.1756,1.3752-5.8008c0.832-1.5684,1.8516-2.8944,2.8985-3.83   c1.336-1.088,2.6367-1.924,3.7499-2.4356c1.4844-0.6268,2.6368-1.1056,3.1796-1.324c3.4416-1.0276,6.8204-1.7816,9.8556-2.2152   c3.246-0.3008,4.7109-0.3496,5.3124-0.3496c0.246,0,0.3476,0.008,0.3752,0.01c1.0233,0.1328,1.992,0.0388,2.836,0.0936   c5.5468,3.914,9.6716,7.2424,12.152,9.7696C81.4179,159.2284,82.4491,161.994,82.4491,165.2696z"/><path d="M116,21.0604H69.8983c-6.34,0-13.2263,0.7464-20.574,2.2444c-7.6448,1.7832-15.0664,5.6092-22.3048,11.586   C16.7147,44.8556,11.492,56.1876,11.492,68.5704c0,10.3964,3.7735,19.6112,11.0547,27.2168   c7.176,8.4492,17.6253,12.8184,31.1056,12.988c0.5352,0,1.086-0.0076,1.6444-0.0232c-0.3436,1.3748-0.5116,2.9024-0.5116,4.6172   c0,4.1484,0.9728,7.7968,2.7304,10.5564c0.2772,0.5332,0.5624,1.0628,0.8596,1.584c-4.086,0.3516-8.6996,0.9044-13.8284,1.6624   c-8.6328,1.488-16.9884,4.5156-24.8984,9.0368c-7.3083,4.3616-12.4688,9.5764-15.3048,15.4496C1.4607,157.4316,0,162.83,0,167.7052   c0,10.0076,4.5743,18.656,13.4727,25.6092c8.656,7.3224,21.6836,11.1172,38.8124,11.2772   c20.168-0.3164,35.9256-5.3004,46.8436-14.8164c10.7228-9.3728,16.1604-20.3748,16.1604-32.7712   c-0.1564-8.664-2.2148-15.8496-6.2032-21.4688c-3.828-5.0216-8.3476-9.6796-13.4336-13.8436l-7.664-6.2756   c-1.012-1.0216-2.0432-2.1912-3.1992-3.6368c-0.4728-0.5252-1.0976-1.4412-1.0976-3.2928c0-1.6152,0.4216-2.9748,1.414-4.34   c1.0428-1.5996,2.164-3.0272,3.086-4.0056c2.4492-2.1368,4.7576-4.2364,7.078-6.4436c2.0508-2.162,4.004-4.5372,5.824-7.076   c3.9648-5.6036,6.0508-13.0176,6.1956-22.0996l0.0036-1.498c0.0156-3.4376,0.0236-5.332-1.1092-9.086   c-1.5624-4.2776-3.0392-7.582-5.3124-9.9396l-0.1056-0.1036h3.8985c1.2459,0,2.4219-0.58,3.1795-1.57l11.336-14.834   c0.922-1.2092,1.082-2.838,0.4064-4.2032C118.9099,21.924,117.5235,21.0604,116,21.0604z M102.6875,35.8944h-12.246   c-1.7695,0-3.2932,1.1896-3.7972,2.8888c-0.5036,1.6972,0.2112,3.5488,1.6957,4.5136c0.8983,0.586,4.2459,3.8244,5.6755,5.2072   l1.2188,1.166c1.41,1.4708,2.828,5.3516,3.3592,6.7872c0.7188,2.3924,0.7148,3.3512,0.6992,6.5312l-0.0036,1.4688   c-0.1171,7.3768-1.7072,13.2792-4.7148,17.5252c-1.59,2.2228-3.3088,4.3124-4.9572,6.0588   c-2.0976,1.984-4.3204,4.0096-6.9336,6.3084c-1.5235,1.58-2.9648,3.4084-4.1564,5.25c-1.8828,2.5664-2.8356,5.5568-2.8356,8.8868   c0,3.3984,1.0544,6.3028,2.988,8.4512c1.246,1.5684,2.5196,3.004,3.7812,4.2696c0.094,0.0936,0.1956,0.1836,0.2972,0.2692   l7.824,6.4064c4.6056,3.7696,8.6916,7.9764,12.0624,12.3924c2.9572,4.17,4.5197,9.846,4.6448,16.8008   c0,10.0528-4.3908,18.7796-13.422,26.672c-9.4492,8.2364-23.4804,12.5588-41.6056,12.8436   c-15.1172-0.1424-26.4295-3.3004-33.742-9.484C11.4415,181.576,8,175.2284,8,167.7052c0-3.6232,1.1795-7.8204,3.5235-12.5196   c2.168-4.4864,6.2812-8.5608,12.16-12.0684c7.0312-4.0196,14.508-6.7324,22.1248-8.0468c7.922-1.168,14.586-1.834,19.8048-1.9824   c1.5-0.0432,2.8516-0.92,3.496-2.2756c0.6488-1.3536,0.4808-2.9548-0.4296-4.1484c-1.504-1.9744-2.8748-4.1388-4.2344-6.7188   c-1.1171-1.7732-1.66-3.9236-1.66-6.576c0-1.4628,0.1876-2.674,0.6524-3.7792c0.488-1.4144,0.9532-2.7132,1.3828-3.8968   c0.4724-1.3008,0.242-2.7536-0.6132-3.8416c-0.7656-0.9688-1.926-1.5256-3.1448-1.5256c-0.1484,0-0.2968,0.008-0.4452,0.0256   c-2.504,0.2812-4.8476,0.4236-6.914,0.4236c-11.172-0.1404-19.3671-3.4668-25.2188-10.3416   c-6.0508-6.328-8.9923-13.4804-8.9923-21.8632c0-10.2736,4.2815-19.4104,12.8515-27.7168   c6.0392-4.9748,12.3636-8.258,18.6876-9.7344c6.7148-1.3652,13.0624-2.0588,18.8672-2.0588h38.0116L102.6875,35.8944z"/><path d="M58.3435,41.1932c-5.4608,0.1312-10.0624,2.3536-13.6715,6.6056c-0.0901,0.1076-0.176,0.2208-0.2581,0.338   c-2.8632,4.2088-4.2539,8.9588-4.1328,14.0272c0,6.3772,1.8556,13.0412,5.5509,19.8692c1.8827,3.3496,4.3435,6.2228,7.3047,8.5372   c3.2772,2.574,7.074,3.8788,11.2772,3.8788c0.0508,0,0.1016,0,0.1484-0.002c5.2228-0.1952,9.6448-2.1152,13.1448-5.7052   c0.1716-0.1776,0.328-0.3708,0.4684-0.576c1.6408-2.4708,2.7152-5.0604,3.2344-7.9784c0.2424-2.2404,0.3672-4.1836,0.3672-5.7812   c0-6.8556-1.7576-13.8204-5.2068-20.668c-1.75-3.5724-4.1212-6.5432-7.168-8.922C66.2459,42.5412,62.6015,41.3224,58.3435,41.1932z    M73.7771,74.4064c0,1.3084-0.1091,2.9628-0.2811,4.6348c-0.2617,1.4528-0.8593,2.9216-1.7773,4.3748   c-1.9844,1.912-4.4024,2.9064-7.3787,3.0332c-2.3713-0.0156-4.4221-0.7244-6.2697-2.1756   c-2.1328-1.666-3.9023-3.7404-5.2343-6.1056c-3.0237-5.586-4.5549-10.9708-4.5549-16.0976   c-0.082-3.4336,0.7772-6.4648,2.6288-9.256c2.0941-2.3964,4.5196-3.5488,7.4024-3.6248c2.4492,0.078,4.5432,0.7692,6.2852,2.0212   c1.9648,1.5352,3.5745,3.5704,4.8088,6.088C72.3083,63.0568,73.7771,68.8124,73.7771,74.4064z"/><polygon points="160,12 148,12 148,0 140,0 140,12 128,12 128,20 140,20 140,32 148,32 148,20 160,20  "/></g></svg>